<?xml version="1.0" encoding="UTF-8" standalone="no"?>
<!DOCTYPE svg PUBLIC "-//W3C//DTD SVG 1.0//EN" "http://www.w3.org/TR/2001/PR-SVG-20010719/DTD/svg10.dtd">
<svg width="60cm" height="18cm" viewBox="-142 769 1191 352" xmlns="http://www.w3.org/2000/svg" xmlns:xlink="http://www.w3.org/1999/xlink">
  <g>
    <rect style="fill: #ffffff" x="210.719" y="797.078" width="416" height="323"/>
    <rect style="fill: none; fill-opacity:0; stroke-width: 2; stroke: #000000" x="210.719" y="797.078" width="416" height="323"/>
    <text font-size="12.7998" style="fill: #000000;text-anchor:middle;font-family:sans-serif;font-style:normal;font-weight:normal" x="418.719" y="962.478">
      <tspan x="418.719" y="962.478"></tspan>
    </text>
  </g>
  <g>
    <path style="fill: #ffffff" d="M 903.219 924.078 C 903.219,864.878 944.219,879.678 944.219,938.878 C 944.219,885.228 985.219,863.028 985.219,916.678 C 985.219,863.028 1046.72,885.228 1026.22,938.878 C 1053.55,938.878 1053.55,998.078 1026.22,998.078 C 1046.72,1046.18 974.969,1048.23 977.019,1000.13 C 977.019,1048.23 936.019,1050.28 936.019,1002.18 C 936.019,1055.83 899.119,1043.53 899.119,989.878 C 873.494,989.878 877.594,924.078 903.219,924.078z"/>
    <path style="fill: none; fill-opacity:0; stroke-width: 2; stroke: #000000" d="M 903.219 924.078 C 903.219,864.878 944.219,879.678 944.219,938.878 C 944.219,885.228 985.219,863.028 985.219,916.678 C 985.219,863.028 1046.72,885.228 1026.22,938.878 C 1053.55,938.878 1053.55,998.078 1026.22,998.078 C 1046.72,1046.18 974.969,1048.23 977.019,1000.13 C 977.019,1048.23 936.019,1050.28 936.019,1002.18 C 936.019,1055.83 899.119,1043.53 899.119,989.878 C 873.494,989.878 877.594,924.078 903.219,924.078"/>
    <text font-size="11.1992" style="fill: #000000;text-anchor:middle;font-family:sans-serif;font-style:normal;font-weight:normal" x="964.719" y="964.478">
      <tspan x="964.719" y="964.478"></tspan>
    </text>
  </g>
  <text font-size="19.7553" style="fill: #000000;text-anchor:start;font-family:sans-serif;font-style:normal;font-weight:normal" x="939.719" y="974.078">
    <tspan x="939.719" y="974.078">Users</tspan>
  </text>
  <g>
    <rect style="fill: #ffffff" x="657.719" y="893.078" width="135" height="157"/>
    <rect style="fill: none; fill-opacity:0; stroke-width: 2; stroke: #000000" x="657.719" y="893.078" width="135" height="157"/>
    <text font-size="12.7998" style="fill: #000000;text-anchor:middle;font-family:sans-serif;font-style:normal;font-weight:normal" x="725.219" y="975.478">
      <tspan x="725.219" y="975.478"></tspan>
    </text>
  </g>
  <g>
    <line style="fill: none; fill-opacity:0; stroke-width: 2; stroke: #000000" x1="900.719" y1="978.078" x2="802.036" y2="1008"/>
    <polygon style="fill: #000000" points="794.859,1010.18 802.978,1002.49 802.036,1008 805.88,1012.06 "/>
    <polygon style="fill: none; fill-opacity:0; stroke-width: 2; stroke: #000000" points="794.859,1010.18 802.978,1002.49 802.036,1008 805.88,1012.06 "/>
  </g>
  <text font-size="19.7553" style="fill: #000000;text-anchor:start;font-family:sans-serif;font-style:normal;font-weight:normal" x="720.219" y="934.578">
    <tspan x="720.219" y="934.578">/artist</tspan>
    <tspan x="720.219" y="959.273">/album</tspan>
    <tspan x="720.219" y="983.967">/user</tspan>
    <tspan x="720.219" y="1008.66">...</tspan>
    <tspan x="720.219" y="1033.36"></tspan>
  </text>
  <text font-size="12.7998" style="fill: #000000;text-anchor:start;font-family:sans-serif;font-style:normal;font-weight:normal" x="1042.72" y="966.078">
    <tspan x="1042.72" y="966.078"></tspan>
  </text>
  <text font-size="12.7998" style="fill: #000000;text-anchor:start;font-family:sans-serif;font-style:normal;font-weight:normal" x="725.219" y="971.578">
    <tspan x="725.219" y="971.578"></tspan>
  </text>
  <text font-size="19.7553" style="fill: #000000;text-anchor:start;font-family:sans-serif;font-style:normal;font-weight:normal" x="684.719" y="879.078">
    <tspan x="684.719" y="879.078">Tomcat</tspan>
  </text>
  <g>
    <rect style="fill: #ffffff" x="236.719" y="895.078" width="153" height="148"/>
    <rect style="fill: none; fill-opacity:0; stroke-width: 2; stroke: #000000" x="236.719" y="895.078" width="153" height="148"/>
    <text font-size="12.7998" style="fill: #000000;text-anchor:middle;font-family:sans-serif;font-style:normal;font-weight:normal" x="313.219" y="972.978">
      <tspan x="313.219" y="972.978"></tspan>
    </text>
  </g>
  <text font-size="19.7553" style="fill: #000000;text-anchor:start;font-family:sans-serif;font-style:normal;font-weight:normal" x="249.219" y="940.078">
    <tspan x="249.219" y="940.078">ArtistService</tspan>
    <tspan x="249.219" y="964.773">AlbumService</tspan>
    <tspan x="249.219" y="989.467">UserService</tspan>
    <tspan x="249.219" y="1014.16">...</tspan>
    <tspan x="249.219" y="1038.86"></tspan>
  </text>
  <text font-size="19.7553" style="fill: #000000;text-anchor:start;font-family:sans-serif;font-style:normal;font-weight:normal" x="234.719" y="864.078">
    <tspan x="234.719" y="864.078">Service Layer</tspan>
  </text>
  <g>
    <line style="fill: none; fill-opacity:0; stroke-width: 2; stroke: #000000" x1="656.712" y1="950.448" x2="604.023" y2="934.198"/>
    <polygon style="fill: #000000" points="596.856,931.987 607.885,930.157 604.023,934.198 604.938,939.712 "/>
    <polygon style="fill: none; fill-opacity:0; stroke-width: 2; stroke: #000000" points="596.856,931.987 607.885,930.157 604.023,934.198 604.938,939.712 "/>
  </g>
  <g>
    <line style="fill: none; fill-opacity:0; stroke-width: 2; stroke: #000000" x1="594.719" y1="1005.83" x2="647.294" y2="992.03"/>
    <polygon style="fill: #000000" points="654.549,990.126 646.146,997.501 647.294,992.03 643.607,987.828 "/>
    <polygon style="fill: none; fill-opacity:0; stroke-width: 2; stroke: #000000" points="654.549,990.126 646.146,997.501 647.294,992.03 643.607,987.828 "/>
  </g>
  <text font-size="12.7998" style="fill: #000000;text-anchor:start;font-family:sans-serif;font-style:normal;font-weight:normal" x="240.719" y="971.578">
    <tspan x="240.719" y="971.578"></tspan>
  </text>
  <text font-size="19.7553" style="fill: #000000;text-anchor:start;font-family:sans-serif;font-style:normal;font-weight:normal" x="36.7193" y="854.078">
    <tspan x="36.7193" y="854.078">VersusORM</tspan>
  </text>
  <g>
    <line style="fill: none; fill-opacity:0; stroke-width: 2; stroke: #000000" x1="151.719" y1="1010.83" x2="226.316" y2="991.544"/>
    <polygon style="fill: #000000" points="233.577,989.667 225.147,997.01 226.316,991.544 222.644,987.329 "/>
    <polygon style="fill: none; fill-opacity:0; stroke-width: 2; stroke: #000000" points="233.577,989.667 225.147,997.01 226.316,991.544 222.644,987.329 "/>
  </g>
  <g>
    <rect style="fill: #ffffff" x="-140.735" y="933.5" width="120.455" height="60.2273"/>
    <ellipse style="fill: #ffffff" cx="-80.508" cy="993.727" rx="60.2273" ry="17.2078"/>
    <ellipse style="fill: #ffffff" cx="-80.508" cy="933.5" rx="60.2273" ry="17.2078"/>
    <path style="fill: none; fill-opacity:0; stroke-width: 1; stroke: #000000" d="M -140.735 933.5 L -140.735,993.727"/>
    <path style="fill: none; fill-opacity:0; stroke-width: 1; stroke: #000000" d="M -20.2807 933.5 L -20.2807,993.727"/>
    <path style="fill: none; fill-opacity:0; stroke-width: 1; stroke: #000000" d="M -140.735 933.5 C -140.735,923.997 -104.267,916.292 -80.508,916.292 C -56.7492,916.292 -20.2807,923.997 -20.2807,933.5"/>
    <path style="fill: none; fill-opacity:0; stroke-width: 1; stroke: #000000" d="M -140.735 933.5 C -140.735,943.004 -104.267,950.708 -80.508,950.708 C -56.7492,950.708 -20.2807,943.004 -20.2807,933.5"/>
    <path style="fill: none; fill-opacity:0; stroke-width: 1; stroke: #000000" d="M -140.735 948.557 C -140.735,958.06 -104.267,965.765 -80.508,965.765 C -56.7492,965.765 -20.2807,958.06 -20.2807,948.557"/>
    <path style="fill: none; fill-opacity:0; stroke-width: 1; stroke: #000000" d="M -140.735 963.614 C -140.735,973.117 -104.267,980.822 -80.508,980.822 C -56.7492,980.822 -20.2807,973.117 -20.2807,963.614"/>
    <path style="fill: none; fill-opacity:0; stroke-width: 1; stroke: #000000" d="M -140.735 978.671 C -140.735,988.174 -104.267,995.878 -80.508,995.878 C -56.7492,995.878 -20.2807,988.174 -20.2807,978.671"/>
    <path style="fill: none; fill-opacity:0; stroke-width: 1; stroke: #000000" d="M -140.735 993.727 C -140.735,1003.23 -104.267,1010.94 -80.508,1010.94 C -56.7492,1010.94 -20.2807,1003.23 -20.2807,993.727"/>
    <text font-size="12.7998" style="fill: #000000;text-anchor:middle;font-family:sans-serif;font-style:normal;font-weight:normal" x="-80.508" y="1027.24">
      <tspan x="-80.508" y="1027.24"></tspan>
    </text>
  </g>
  <g>
    <rect style="fill: #ffffff" x="18.7193" y="893.078" width="133" height="157"/>
    <rect style="fill: none; fill-opacity:0; stroke-width: 2; stroke: #000000" x="18.7193" y="893.078" width="133" height="157"/>
    <text font-size="12.7998" style="fill: #000000;text-anchor:middle;font-family:sans-serif;font-style:normal;font-weight:normal" x="85.2193" y="975.478">
      <tspan x="85.2193" y="975.478"></tspan>
    </text>
  </g>
  <g>
    <line style="fill: none; fill-opacity:0; stroke-width: 2; stroke: #000000" x1="18.7193" y1="932.328" x2="-10.3683" y2="941.499"/>
    <polygon style="fill: #000000" points="-17.5212,943.755 -9.48753,935.979 -10.3683,941.499 -6.48052,945.516 "/>
    <polygon style="fill: none; fill-opacity:0; stroke-width: 2; stroke: #000000" points="-17.5212,943.755 -9.48753,935.979 -10.3683,941.499 -6.48052,945.516 "/>
  </g>
  <g>
    <line style="fill: none; fill-opacity:0; stroke-width: 2; stroke: #000000" x1="236.719" y1="932.078" x2="162.124" y2="951.527"/>
    <polygon style="fill: #000000" points="154.866,953.419 163.281,946.058 162.124,951.527 165.804,955.735 "/>
    <polygon style="fill: none; fill-opacity:0; stroke-width: 2; stroke: #000000" points="154.866,953.419 163.281,946.058 162.124,951.527 165.804,955.735 "/>
  </g>
  <g>
    <rect style="fill: #ffffff" x="423.719" y="894.078" width="171" height="149"/>
    <rect style="fill: none; fill-opacity:0; stroke-width: 2; stroke: #000000" x="423.719" y="894.078" width="171" height="149"/>
    <text font-size="12.7998" style="fill: #000000;text-anchor:middle;font-family:sans-serif;font-style:normal;font-weight:normal" x="509.219" y="972.478">
      <tspan x="509.219" y="972.478"></tspan>
    </text>
  </g>
  <text font-size="19.7553" style="fill: #000000;text-anchor:start;font-family:sans-serif;font-style:normal;font-weight:normal" x="442.219" y="941.578">
    <tspan x="442.219" y="941.578">ArtistServlet</tspan>
    <tspan x="442.219" y="966.273">AlbumServlet</tspan>
    <tspan x="442.219" y="990.967">UserServlet</tspan>
    <tspan x="442.219" y="1015.66"></tspan>
  </text>
  <g>
    <line style="fill: none; fill-opacity:0; stroke-width: 2; stroke: #000000" x1="422.731" y1="942.161" x2="399.031" y2="934.922"/>
    <polygon style="fill: #000000" points="391.858,932.731 402.882,930.871 399.031,934.922 399.961,940.434 "/>
    <polygon style="fill: none; fill-opacity:0; stroke-width: 2; stroke: #000000" points="391.858,932.731 402.882,930.871 399.031,934.922 399.961,940.434 "/>
  </g>
  <g>
    <line style="fill: none; fill-opacity:0; stroke-width: 2; stroke: #000000" x1="389.719" y1="1006.08" x2="413.441" y2="998.634"/>
    <polygon style="fill: #000000" points="420.597,996.388 412.553,1004.15 413.441,998.634 409.559,994.612 "/>
    <polygon style="fill: none; fill-opacity:0; stroke-width: 2; stroke: #000000" points="420.597,996.388 412.553,1004.15 413.441,998.634 409.559,994.612 "/>
  </g>
  <text font-size="19.7553" style="fill: #000000;text-anchor:start;font-family:sans-serif;font-style:normal;font-weight:normal" x="462.719" y="862.078">
    <tspan x="462.719" y="862.078">Servlets</tspan>
    <tspan x="462.719" y="886.773"></tspan>
  </text>
  <g>
    <line style="fill: none; fill-opacity:0; stroke-width: 2; stroke: #000000" x1="-19.2808" y1="966.556" x2="7.99575" y2="967.867"/>
    <polygon style="fill: #000000" points="15.4871,968.227 5.25863,972.741 7.99575,967.867 5.73864,962.753 "/>
    <polygon style="fill: none; fill-opacity:0; stroke-width: 2; stroke: #000000" points="15.4871,968.227 5.25863,972.741 7.99575,967.867 5.73864,962.753 "/>
  </g>
  <g>
    <line style="fill: none; fill-opacity:0; stroke-width: 2; stroke: #000000" x1="792.719" y1="932.328" x2="895.989" y2="935.755"/>
    <polygon style="fill: #000000" points="903.484,936.004 893.324,940.67 895.989,935.755 893.656,930.675 "/>
    <polygon style="fill: none; fill-opacity:0; stroke-width: 2; stroke: #000000" points="903.484,936.004 893.324,940.67 895.989,935.755 893.656,930.675 "/>
  </g>
  <text font-size="19.7553" style="fill: #000000;text-anchor:start;font-family:sans-serif;font-style:normal;font-weight:normal" x="-130.281" y="859.078">
    <tspan x="-130.281" y="859.078">Database</tspan>
  </text>
  <text font-size="19.7553" style="fill: #000000;text-anchor:start;font-family:sans-serif;font-style:normal;font-weight:normal" x="357.719" y="788.078">
    <tspan x="357.719" y="788.078">Application</tspan>
    <tspan x="357.719" y="812.773"></tspan>
  </text>
</svg>
